<svg width="59" height="57" viewBox="0 0 59 57" fill="none" xmlns="http://www.w3.org/2000/svg">
<rect x="0.5" width="58" height="57" rx="9" fill="#EBBFAE"/>
<path d="M42.2815 41.5799L40.7918 39.918C40.8925 37.7081 41.0588 26.8778 35.1657 20.3031C30.0663 14.6142 21.9815 14 18.7422 14C17.8149 14 17.2577 14.0491 17.2346 14.0512C16.8698 14.0841 16.58 14.4069 16.5509 14.8139C16.5136 15.3336 15.708 27.626 22.155 34.8178C27.2544 40.5067 35.3399 41.1205 38.5793 41.1205C39.0858 41.1205 39.4766 41.1059 39.7359 41.0926L41.2271 42.7562C41.3725 42.9189 41.5635 43 41.7545 43C41.9454 43 42.1364 42.9189 42.2819 42.7562C42.5728 42.4312 42.5728 41.9048 42.2815 41.5799ZM23.2094 33.6411C18.1085 27.9505 17.9455 18.3782 18.0089 15.676C18.2125 15.6694 18.4591 15.6648 18.7422 15.6648C21.7958 15.6648 29.4057 16.2315 34.1109 21.4802C38.633 26.525 39.2737 34.6181 39.317 38.2723L33.8129 32.1323L34.5059 25.506C34.5537 25.0495 34.2605 24.6363 33.8517 24.5831C33.4392 24.5306 33.0722 24.8568 33.0244 25.3129L32.4683 30.6319L28.7001 26.4285L28.1175 21.5093C28.0634 21.0537 27.6867 20.7316 27.2801 20.7932C26.8717 20.8536 26.5841 21.2717 26.6382 21.7274L26.9657 24.494L22.5962 19.619C22.3053 19.294 21.8323 19.294 21.5414 19.619C21.2501 19.944 21.2501 20.4708 21.5414 20.7957L25.9105 25.6699L23.4313 25.3046C23.0229 25.2447 22.6477 25.565 22.594 26.0207C22.5399 26.4763 22.8275 26.8945 23.2359 26.9548L27.6445 27.6048L31.4128 31.8082L26.6453 32.4286C26.2361 32.4819 25.9433 32.895 25.9911 33.3515C26.0355 33.7755 26.3577 34.0876 26.7311 34.0876C26.7598 34.0876 26.7889 34.0859 26.8184 34.0818L32.7577 33.3091L38.2667 39.4548C35.0337 39.4145 27.7616 38.7196 23.2094 33.6411Z" fill="#2A2A2A"/>
</svg>
