<svg width="94" height="83" viewBox="0 0 94 83" fill="none" xmlns="http://www.w3.org/2000/svg">
<rect x="1.94208" y="1.47162" width="90.1158" height="80.0568" rx="8" stroke="white" stroke-width="2"/>
<path d="M68.5723 63.2097L66.0513 60.4652C66.2217 56.8158 66.5032 38.9307 56.5302 28.0731C47.9004 18.6785 34.2185 17.6642 28.7365 17.6642C27.1674 17.6642 26.2243 17.7453 26.1852 17.7488C25.5679 17.803 25.0774 18.3363 25.0282 19.0083C24.9651 19.8666 23.6017 40.1662 34.512 52.0429C43.1418 61.4376 56.825 62.4511 62.307 62.4511C63.1641 62.4511 63.8256 62.427 64.2643 62.4051L66.7879 65.1523C67.034 65.4209 67.3572 65.5549 67.6804 65.5549C68.0036 65.5549 68.3267 65.4209 68.5729 65.1523C69.0652 64.6156 69.0652 63.7464 68.5723 63.2097ZM36.2964 50.0996C27.6641 40.7022 27.3883 24.8944 27.4956 20.4321C27.8402 20.4211 28.2574 20.4135 28.7365 20.4135C33.9042 20.4135 46.7826 21.3494 54.7452 30.0171C62.3979 38.348 63.4823 51.7131 63.5555 57.7476L54.2408 47.608L55.4136 36.6652C55.4944 35.9114 54.9983 35.2291 54.3065 35.1411C53.6084 35.0546 52.9873 35.5933 52.9065 36.3464L51.9654 45.1302L45.5883 38.1886L44.6024 30.0652C44.5109 29.3128 43.8734 28.7809 43.1854 28.8826C42.4942 28.9822 42.0075 29.6728 42.0991 30.4252L42.6532 34.9941L35.2587 26.9435C34.7664 26.4068 33.966 26.4068 33.4737 26.9435C32.9807 27.4801 32.9807 28.3501 33.4737 28.8867L40.8676 36.936L36.672 36.3326C35.9808 36.2337 35.3458 36.7628 35.2549 37.5152C35.1634 38.2677 35.6501 38.9582 36.3412 39.0579L43.802 40.1312L50.1791 47.0727L42.111 48.0973C41.4186 48.1852 40.9231 48.8676 41.0039 49.6214C41.079 50.3216 41.6244 50.8369 42.2562 50.8369C42.3048 50.8369 42.3541 50.8342 42.4039 50.8273L52.4552 49.5513L61.778 59.7004C56.3068 59.6338 44.0002 58.4863 36.2964 50.0996Z" fill="white"/>
</svg>
